<svg width="156" height="156" viewBox="0 0 156 156" fill="none" xmlns="http://www.w3.org/2000/svg">
<g clip-path="url(#clip0_23_4)">
<path d="M141.889 0H14.1115C6.318 0 0 6.318 0 14.1115V141.888C0 149.682 6.318 156 14.1115 156H141.888C149.682 156 156 149.682 156 141.888V14.1115C156 6.318 149.682 0 141.889 0ZM48.273 134.701C48.273 136.969 46.4345 138.807 44.1664 138.807H26.6854C24.4173 138.807 22.5788 136.969 22.5788 134.701V61.4211C22.5788 59.153 24.4173 57.3145 26.6854 57.3145H44.1664C46.4345 57.3145 48.273 59.153 48.273 61.4211V134.701ZM35.4259 50.4068C26.2541 50.4068 18.8188 42.9715 18.8188 33.7997C18.8188 24.628 26.2541 17.1927 35.4259 17.1927C44.5976 17.1927 52.0329 24.628 52.0329 33.7997C52.0329 42.9715 44.598 50.4068 35.4259 50.4068ZM139.628 135.031C139.628 137.117 137.937 138.807 135.852 138.807H117.094C115.009 138.807 113.318 137.117 113.318 135.031V100.659C113.318 95.5316 114.822 78.1899 99.918 78.1899C88.3573 78.1899 86.0124 90.0598 85.5415 95.3866V135.031C85.5415 137.117 83.8512 138.807 81.7656 138.807H63.6231C61.5379 138.807 59.8472 137.117 59.8472 135.031V61.0903C59.8472 59.0052 61.5379 57.3145 63.6231 57.3145H81.7656C83.8508 57.3145 85.5415 59.0052 85.5415 61.0903V67.4835C89.8282 61.0503 96.1989 56.0849 109.763 56.0849C139.8 56.0849 139.628 84.1469 139.628 99.5656V135.031Z" fill="#0077B7"/>
</g>
<defs>
<clipPath id="clip0_23_4">
<rect width="156" height="156" fill="white"/>
</clipPath>
</defs>
</svg>
